<svg xmlns="http://www.w3.org/2000/svg" width="94" height="69"><path fill-rule="evenodd" fill="#FFF" d="M89.821 68.668H4.102c-2.209 0-4.019-1.929-4.019-4.285 0-2.357 1.81-4.286 4.019-4.286h85.719c2.211 0 4.019 1.929 4.019 4.286 0 2.356-1.808 4.285-4.019 4.285zM4.102 30.233h68.674c2.21 0 4.017 1.929 4.017 4.286 0 2.357-1.807 4.285-4.017 4.285H4.102c-2.209 0-4.019-1.928-4.019-4.285s1.81-4.286 4.019-4.286zM85.561 8.94H4.102C1.893 8.94.083 7.011.083 4.655c0-2.357 1.81-4.286 4.019-4.286h81.459c2.211 0 4.018 1.929 4.018 4.286 0 2.356-1.807 4.285-4.018 4.285z"/></svg>